<?xml version="1.0" encoding="utf-8"?>
<!-- Generator: Adobe Illustrator 16.0.4, SVG Export Plug-In . SVG Version: 6.00 Build 0)  -->
<!DOCTYPE svg PUBLIC "-//W3C//DTD SVG 1.1//EN" "http://www.w3.org/Graphics/SVG/1.1/DTD/svg11.dtd">
<svg version="1.1" id="Layer_1" xmlns="http://www.w3.org/2000/svg" xmlns:xlink="http://www.w3.org/1999/xlink" x="0px" y="0px"
	 width="908px" height="340px" viewBox="0 0 908 340" enable-background="new 0 0 908 340" xml:space="preserve">
<rect fill="#E5A53E" width="908" height="340"/>
<g>
	<path fill="#FFFFFF" d="M56.309,45.677c5.079,4.905,7.898,10.823,8.459,16.823h-9.709c-1.082-5-3.236-8.597-6.463-11.367
		c-3.229-2.769-7.759-4.207-13.591-4.207c-7.111,0-12.854,2.52-17.228,7.612c-4.375,5.092-6.561,12.885-6.561,23.404
		c0,8.616,1.975,15.597,5.925,20.957c3.949,5.36,9.841,8.036,17.674,8.036c7.211,0,12.701-2.952,16.471-8.591
		c1.999-2.969,3.49-6.844,4.474-11.844h9.709c-0.858,8-3.694,14.362-8.509,19.6c-5.772,6.306-13.556,9.525-23.352,9.525
		c-8.443,0-15.535-2.554-21.273-7.73C4.782,101.051,1.005,90.5,1.005,76.209c0-10.85,2.835-19.74,8.508-26.685
		c6.133-7.545,14.592-11.261,25.376-11.261C44.091,38.263,51.23,40.772,56.309,45.677z"/>
	<path fill="#FFFFFF" d="M78.5,40.5h13.85l21.141,62.161L134.481,40.5H148.5v73h-9V70.346c0-1.501-0.147-3.987-0.08-7.457
		c0.066-3.47,0.01-7.309,0.01-11.28L118.35,113.5h-9.869L87.5,51.728v2.252c0,1.802-0.101,4.547,0,8.233c0.1,3.687,0,6.398,0,8.133
		V113.5h-9V40.5z"/>
	<path fill="#FFFFFF" d="M158.042,40.5h11.614l21.136,35.334L211.927,40.5h11.715L195.5,84.109V113.5h-10V84.109L158.042,40.5z"/>
	<path fill="#FFFFFF" d="M232.5,40.5h9v35.703L278.574,40.5h13.923l-31.413,29.411l32.064,43.589h-13.033l-26.486-36.826
		L241.5,88.113V113.5h-9V40.5z"/>
	<path fill="#FFFFFF" d="M301.5,102.5h10v11h-10V102.5z"/>
</g>
</svg>
