<?xml version="1.0" encoding="utf-8"?>
<!-- Generator: Adobe Illustrator 16.0.4, SVG Export Plug-In . SVG Version: 6.00 Build 0)  -->
<!DOCTYPE svg PUBLIC "-//W3C//DTD SVG 1.1//EN" "http://www.w3.org/Graphics/SVG/1.1/DTD/svg11.dtd">
<svg version="1.1" id="Layer_1" xmlns="http://www.w3.org/2000/svg" xmlns:xlink="http://www.w3.org/1999/xlink" x="0px" y="0px"
	 width="908px" height="340px" viewBox="0 0 908 340" style="enable-background:new 0 0 908 340;" xml:space="preserve">
<style type="text/css">
<![CDATA[
	.st0{enable-background:new    ;}
	.st1{opacity:0.5;fill:#FFFFFF;}
	.st2{fill:#FFFFFF;}
	.st3{fill:#00AEEF;}
]]>
</style>
<rect class="st3" width="908" height="340"/>
<g class="st0">
	<path class="st2" d="M0.5,111.5v-74h7v32h44v-32h7v74h-7v-36h-44v36H0.5z"/>
	<path class="st2" d="M93.5,112.031c-1,0.137-2.018,0.378-3.256,0.723c-1.238,0.343-2.747,0.516-4.26,0.516
		c-3.096,0-5.448-0.774-7.063-2.321c-1.617-1.548-2.42-4.316-2.42-8.307V63.5h-8v-5h8v-15h6v15h10v5h-10v36.665
		c0,1.307,0.059,2.442,0.128,3.405c0.067,0.964,0.287,1.754,0.632,2.374c0.344,0.619,0.883,1.067,1.605,1.341
		c0.723,0.276,1.74,0.413,3.047,0.413c0.826,0,1.933-0.067,2.794-0.206c0.859-0.137,1.793-0.31,2.793-0.516V112.031z"/>
	<path class="st2" d="M121.5,112.031c-1,0.137-1.675,0.378-2.913,0.723c-1.238,0.343-2.576,0.516-4.088,0.516
		c-3.096,0-5.706-0.774-7.321-2.321c-1.617-1.548-2.678-4.316-2.678-8.307V63.5h-7v-5h7v-15h7v15h10v5h-10v36.665
		c0,1.307-0.098,2.442-0.028,3.405c0.067,0.964,0.208,1.754,0.553,2.374c0.344,0.619,0.845,1.067,1.567,1.341
		c0.722,0.276,1.72,0.413,3.027,0.413c0.825,0,1.579-0.067,2.44-0.206c0.86-0.137,1.441-0.31,2.441-0.516V112.031z"/>
	<path class="st2" d="M138.5,132.5h-6v-74h6v9h0.185c0.893-1,2.046-3.135,3.457-4.512c1.409-1.375,2.957-2.445,4.644-3.34
		c1.685-0.893,3.421-1.548,5.211-2.03c1.788-0.48,3.542-0.707,5.263-0.707c4.334,0,8.013,0.731,11.042,2.176
		c3.026,1.445,5.521,3.427,7.481,5.937c1.961,2.512,3.388,5.489,4.282,8.929c0.894,3.44,1.342,7.122,1.342,11.042
		c0,3.715-0.482,7.293-1.445,10.731c-0.964,3.441-2.425,6.45-4.385,9.03c-1.961,2.58-4.437,4.644-7.43,6.192
		c-2.993,1.547-6.519,2.321-10.577,2.321c-3.784,0-7.402-0.843-10.876-2.528c-3.475-1.685-6.192-4.179-8.192-7.481V132.5z
		 M138.479,85.306c0,3.028,0.413,5.899,1.238,8.616c0.825,2.719,2.012,5.092,3.56,7.12c1.548,2.03,3.439,3.647,5.675,4.85
		c2.235,1.205,4.763,1.806,7.584,1.806c3.164,0,5.934-0.635,8.307-1.909c2.374-1.272,4.316-3.009,5.83-5.211
		c1.513-2.2,2.614-4.763,3.302-7.687c0.687-2.923,0.963-6.071,0.826-9.442c0-3.369-0.465-6.346-1.393-8.926
		c-0.929-2.58-2.219-4.762-3.87-6.552c-1.651-1.788-3.578-3.148-5.778-4.077c-2.203-0.928-4.61-1.393-7.224-1.393
		c-2.89,0-5.469,0.584-7.739,1.754s-4.163,2.77-5.675,4.797c-1.514,2.03-2.667,4.438-3.457,7.224
		C138.874,79.062,138.479,82.073,138.479,85.306z"/>
	<path class="st2" d="M197.5,70.5v-9h8v9H197.5z M197.5,111.5v-9h8v9H197.5z"/>
	<path class="st2" d="M221.339,121.5h-5.779l24.25-86h5.779L221.339,121.5z"/>
	<path class="st2" d="M250.025,121.5h-5.779l24.25-86h5.779L250.025,121.5z"/>
	<path class="st2" d="M339.903,102.5h0.207l16.2-65h7.224l-19.503,74h-7.739l-17.232-65h-0.207l-17.232,65h-7.739l-19.193-74h7.017
		l15.994,65h0.207l17.232-65h7.843L339.903,102.5z"/>
	<path class="st2" d="M431.638,102.5h0.206l16.201-65h7.224l-19.503,74h-7.739l-17.232-65h-0.207l-17.232,65h-7.739l-19.193-74
		h7.017l15.994,65h0.207l17.232-65h7.843L431.638,102.5z"/>
	<path class="st2" d="M523.373,102.5h0.206l16.2-65h7.224l-19.503,74h-7.739l-17.232-65h-0.207l-17.231,65h-7.739l-19.193-74h7.017
		l15.994,65h0.207l17.231-65h7.843L523.373,102.5z"/>
	<path class="st2" d="M551.5,111.5v-9h7v9H551.5z"/>
</g>
<rect x="576.5" y="15.5" class="st1" width="6" height="106"/>
</svg>
