<?xml version="1.0" encoding="utf-8"?>
<!-- Generator: Adobe Illustrator 16.0.4, SVG Export Plug-In . SVG Version: 6.00 Build 0)  -->
<!DOCTYPE svg PUBLIC "-//W3C//DTD SVG 1.1//EN" "http://www.w3.org/Graphics/SVG/1.1/DTD/svg11.dtd">
<svg version="1.1" id="Layer_1" xmlns="http://www.w3.org/2000/svg" xmlns:xlink="http://www.w3.org/1999/xlink" x="0px" y="0px"
	 width="56px" height="56px" viewBox="0 0 56 56" enable-background="new 0 0 56 56" xml:space="preserve">
<path fill="#777777" d="M28.001,3.196c13.677,0,24.804,11.127,24.804,24.805c0,13.677-11.127,24.804-24.804,24.804
	c-13.678,0-24.805-11.127-24.805-24.804C3.196,14.323,14.323,3.196,28.001,3.196 M28.001,0C12.536,0,0,12.536,0,28.001
	C0,43.464,12.536,56,28.001,56C43.464,56,56,43.464,56,28.001C56,12.536,43.464,0,28.001,0L28.001,0z"/>
<path fill="#777777" d="M27.877,43.336c-0.409,0-0.818-0.154-1.13-0.468L12.711,28.833c-0.3-0.3-0.468-0.706-0.468-1.13
	c0-0.424,0.168-0.83,0.468-1.13l13.525-13.525c0.624-0.624,1.636-0.624,2.26,0s0.624,1.636,0,2.26L16.101,27.704l12.906,12.905
	c0.624,0.623,0.624,1.636,0,2.26C28.695,43.18,28.286,43.336,27.877,43.336z"/>
<path fill="#777777" d="M41.908,29.25H13.914c-0.829,0-1.5-0.671-1.5-1.5s0.671-1.5,1.5-1.5h27.995c0.827,0,1.5,0.671,1.5,1.5
	S42.736,29.25,41.908,29.25z"/>
</svg>
