<?xml version="1.0" encoding="UTF-8"?>
<svg width="48px" height="48px" viewBox="0 0 48 48" version="1.1" xmlns="http://www.w3.org/2000/svg" xmlns:xlink="http://www.w3.org/1999/xlink">
    <!-- Generator: Sketch 47.1 (45422) - http://www.bohemiancoding.com/sketch -->
    <title>Backarrow</title>
    <desc>Created with Sketch.</desc>
    <defs></defs>
    <g id="Page-1" stroke="none" stroke-width="1" fill="none" fill-rule="evenodd">
        <g id="Backarrow" fill-rule="nonzero" fill="#777777">
            <g id="Group" transform="translate(9.000000, 9.000000)">
                <path d="M14.4621163,29.656324 L1.10068226,17.5084411 C0.780319964,17.2021976 -1.77635684e-15,16.3982437 -1.77635684e-15,15.4383805 C-1.74266416e-15,14.4785172 0.780319964,13.8014078 1.10068226,13.4951643 L14.4621163,1.28027394 C15.4205335,0.351318184 16.3077174,-0.523240372 17.3369432,0.378516782 C18.3661689,1.28027394 17.8375419,2.70968389 17.3369432,3.27615651 L4.0166167,15.4383805 L17.3369432,27.6070332 C17.8819686,28.1581757 18.5064994,29.7377299 17.3369432,30.7222617 C16.4727958,31.4497006 15.3998177,30.6263249 14.4621163,29.656324 Z" id="Shape"></path>
                <path d="M28.547185,17 L1.45184707,17 C0.64945959,17 0,16.329 0,15.5 C0,14.671 0.64945959,14 1.45184707,14 L28.5481529,14 C29.3486046,14 30,14.671 30,15.5 C30,16.329 29.3486046,17 28.547185,17 Z" id="Shape"></path>
            </g>
        </g>
    </g>
</svg>